<svg width="99" height="100" viewBox="0 0 99 100" fill="none" xmlns="http://www.w3.org/2000/svg">
<g clip-path="url(#clip0_7_313)">
<path d="M82.8922 17.3187H16.4302C11.9145 17.3187 8.26096 21.0133 8.26096 25.529V41.9495C12.7766 41.9495 16.4302 45.6441 16.4302 50.1597C16.4302 54.6754 12.7766 58.37 8.21991 58.37V74.7905C8.21991 79.3061 11.9145 83.0008 16.4302 83.0008H82.1122C86.6278 83.0008 90.3224 79.3061 90.3224 74.7905V25.529C90.3224 21.0133 86.9973 17.3187 82.8922 17.3187ZM72.7936 55.4964L36.4221 65.1845L29.6076 53.3617L33.4254 52.3355L38.5978 56.3995L48.4091 53.7723L38.5568 36.6949L44.304 35.135L60.7655 50.4882L70.782 47.8198C72.8757 47.2451 75.0514 48.5177 75.6261 50.6113C76.1598 52.7049 74.9282 54.8806 72.7936 55.4964Z" fill="#007FFF"/>
</g>
<defs>
<clipPath id="clip0_7_313">
<rect width="98.523" height="98.523" fill="white" transform="translate(0.00964355 0.898315)"/>
</clipPath>
</defs>
</svg>
