<svg width="99" height="100" viewBox="0 0 99 100" fill="none" xmlns="http://www.w3.org/2000/svg">
<g clip-path="url(#clip0_7_386)">
<path d="M62.3716 67.25L57.3841 72.325C57.0341 72.675 56.8591 73.0833 56.8591 73.55C56.8591 74.0167 57.0341 74.425 57.3841 74.775C57.7341 75.125 58.1424 75.3 58.6091 75.3C59.0758 75.3 59.4841 75.125 59.8341 74.775L66.6591 67.95C67.3591 67.25 67.7091 66.4333 67.7091 65.5C67.7091 64.5667 67.3591 63.75 66.6591 63.05L59.8341 56.225C59.4841 55.875 59.0758 55.7 58.6091 55.7C58.1424 55.7 57.7341 55.875 57.3841 56.225C57.0341 56.575 56.8591 56.9833 56.8591 57.45C56.8591 57.9167 57.0341 58.325 57.3841 58.675L62.4591 63.75H49.8591C49.3924 63.75 48.9841 63.925 48.6341 64.275C48.2841 64.625 48.1091 65.0333 48.1091 65.5C48.1091 65.9667 48.2841 66.375 48.6341 66.725C48.9841 67.075 49.3924 67.25 49.8591 67.25H62.3716ZM58.6091 83C53.7674 83 49.6403 81.2937 46.2278 77.8812C42.8153 74.4687 41.1091 70.3417 41.1091 65.5C41.1091 60.6583 42.8153 56.5312 46.2278 53.1187C49.6403 49.7062 53.7674 48 58.6091 48C63.4508 48 67.5778 49.7062 70.9903 53.1187C74.4028 56.5312 76.1091 60.6583 76.1091 65.5C76.1091 70.3417 74.4028 74.4687 70.9903 77.8812C67.5778 81.2937 63.4508 83 58.6091 83ZM41.4591 83H34.5466C33.6716 83 32.9133 82.7083 32.2716 82.125C31.6299 81.5417 31.2508 80.8125 31.1341 79.9375L30.0841 71.8C29.3258 71.5083 28.6112 71.1583 27.9403 70.75C27.2695 70.3417 26.6133 69.9042 25.9716 69.4375L18.3591 72.5875C17.5424 72.9375 16.7258 72.9812 15.9091 72.7187C15.0924 72.4562 14.4508 71.9458 13.9841 71.1875L7.50909 59.9C7.04242 59.1417 6.89659 58.325 7.07159 57.45C7.24659 56.575 7.68409 55.875 8.38409 55.35L14.9466 50.3625C14.8883 49.9542 14.8591 49.5604 14.8591 49.1812V46.8187C14.8591 46.4396 14.8883 46.0458 14.9466 45.6375L8.38409 40.65C7.68409 40.125 7.24659 39.425 7.07159 38.55C6.89659 37.675 7.04242 36.8583 7.50909 36.1L13.9841 24.8125C14.4508 24.0542 15.0924 23.5437 15.9091 23.2812C16.7258 23.0187 17.5424 23.0625 18.3591 23.4125L25.9716 26.5625C26.6133 26.0958 27.2695 25.6583 27.9403 25.25C28.6112 24.8417 29.3258 24.4917 30.0841 24.2L31.1341 16.0625C31.2508 15.1875 31.6299 14.4583 32.2716 13.875C32.9133 13.2917 33.6716 13 34.5466 13H47.6716C48.5466 13 49.3049 13.2917 49.9466 13.875C50.5883 14.4583 50.9674 15.1875 51.0841 16.0625L52.1341 24.2C52.8924 24.4917 53.607 24.8417 54.2778 25.25C54.9487 25.6583 55.6049 26.0958 56.2466 26.5625L63.8591 23.4125C64.6758 23.0625 65.4924 23.0187 66.3091 23.2812C67.1258 23.5437 67.7674 24.0542 68.2341 24.8125L74.7091 36.1C75.1758 36.8583 75.3216 37.675 75.1466 38.55C74.9716 39.425 74.5341 40.125 73.8341 40.65L69.8091 43.7125C68.0591 42.8375 66.2508 42.1667 64.3841 41.7C62.5174 41.2333 60.5924 41 58.6091 41C57.4424 41 56.3195 41.1021 55.2403 41.3062C54.1612 41.5104 53.0674 41.7583 51.9591 42.05C50.8508 40.125 49.3487 38.5937 47.4528 37.4562C45.557 36.3187 43.5008 35.75 41.2841 35.75C37.9008 35.75 35.0133 36.9458 32.6216 39.3375C30.2299 41.7292 29.0341 44.6167 29.0341 48C29.0341 50.2167 29.5737 52.2583 30.6528 54.125C31.732 55.9917 33.2049 57.4792 35.0716 58.5875C34.7216 59.7542 34.4737 60.9646 34.3278 62.2187C34.182 63.4729 34.1091 64.7125 34.1091 65.9375C34.1674 69.2042 34.8237 72.3104 36.0778 75.2562C37.332 78.2021 39.1258 80.7833 41.4591 83Z" fill="#007FFF"/>
</g>
<defs>
<clipPath id="clip0_7_386">
<rect width="98.523" height="98.523" fill="white" transform="translate(0.00964355 0.578735)"/>
</clipPath>
</defs>
</svg>
